<svg xmlns="http://www.w3.org/2000/svg" viewBox="0 0 64 64">
  <defs>
    <linearGradient id="bg" x1="0" x2="1" y1="0" y2="1">
      <stop offset="0%" stop-color="#0d0d18" />
      <stop offset="100%" stop-color="#13131f" />
    </linearGradient>
  </defs>
  <rect width="64" height="64" rx="12" fill="url(#bg)" />
  <g transform="translate(2 16) scale(0.9)">
    <path
      d="M9 12.25c0-1.1.9-2 2-2h12.2c1.1 0 2 .9 2 2v9.4c0 1.93-1.57 3.5-3.5 3.5H11c-1.1 0-2-.9-2-2v-10.9Z"
      fill="#c9b85a"
    />
    <path
      d="M24.8 13.55h2.1c2.1 0 3.8 1.7 3.8 3.8 0 2.1-1.7 3.8-3.8 3.8h-2.1"
      stroke="#c9b85a"
      stroke-width="1.8"
      stroke-linecap="round"
    />
    <path d="M7.8 27.95h19.9" stroke="#c9b85a" stroke-width="2" stroke-linecap="round" />
    <path d="M14.3 5.9c-1.3 1.3 1.9 1.5.1 3.4" stroke="#c9b85a" stroke-width="1.5" stroke-linecap="round" />
    <path d="M18.4 4.6c-1.15 1.15 1.65 1.35 0 3.05" stroke="#c9b85a" stroke-width="1.5" stroke-linecap="round" />
  </g>
  <g transform="translate(34 19) scale(0.9)">
    <circle cx="8.4" cy="5.8" r="2.8" fill="#4ec9b0" />
    <circle cx="20.2" cy="5.8" r="2.8" fill="#4ec9b0" />
    <ellipse cx="14.3" cy="14.9" rx="10.8" ry="8.8" fill="#4ec9b0" />
    <circle cx="10.8" cy="13.1" r="1.3" fill="#080812" />
    <circle cx="18.1" cy="13.1" r="1.3" fill="#080812" />
    <path d="M13 17.2c.55.6 1.25.9 2.1.9.85 0 1.55-.3 2.1-.9" stroke="#080812" stroke-width="1.25" stroke-linecap="round" />
    <rect x="12.1" y="18" width="1.6" height="2.2" rx=".35" fill="#e7f8f4" />
    <rect x="14.1" y="18" width="1.6" height="2.2" rx=".35" fill="#e7f8f4" />
  </g>
</svg>
